Normalized EMG Linear Envelopes
nRows=59
nColumns=17

endheader
time	        VM	        VL	        RF	       GRA	        TA	   ADDLONG	   SEMIMEM	      BFLH	        GM	        GL	       TFL	   GLUTMAX	   GLUTMED	      PIRI	    OBTINT	        QF	
1.905	  0.076248	  0.112310	  0.199525	  0.937603	  0.231456	  0.357791	  0.258018	  0.134204	  0.274400	  0.324941	  0.336488	  0.021885	  0.077928	  0.253174	  0.352311	  0.129334	
1.9055	  0.074715	  0.111199	  0.200446	  0.944983	  0.234263	  0.356811	  0.259587	  0.135571	  0.275028	  0.325353	  0.339172	  0.021535	  0.077548	  0.251749	  0.350386	  0.127591	
1.906	  0.073211	  0.110117	  0.201426	  0.952297	  0.237104	  0.355820	  0.261123	  0.136933	  0.275614	  0.325741	  0.341837	  0.021192	  0.077171	  0.250308	  0.348460	  0.125865	
1.9065	  0.071737	  0.109064	  0.202465	  0.959539	  0.239977	  0.354817	  0.262625	  0.138288	  0.276158	  0.326104	  0.344483	  0.020857	  0.076797	  0.248850	  0.346535	  0.124156	
1.907	  0.070293	  0.108041	  0.203563	  0.966704	  0.242882	  0.353804	  0.264093	  0.139637	  0.276660	  0.326446	  0.347109	  0.020529	  0.076426	  0.247376	  0.344612	  0.122464	
1.9075	  0.068879	  0.107046	  0.204722	  0.973785	  0.245818	  0.352780	  0.265526	  0.140978	  0.277118	  0.326766	  0.349715	  0.020208	  0.076059	  0.245888	  0.342692	  0.120789	
1.908	  0.067495	  0.106082	  0.205941	  0.980778	  0.248785	  0.351744	  0.266924	  0.142310	  0.277534	  0.327068	  0.352298	  0.019894	  0.075695	  0.244385	  0.340777	  0.119132	
1.9085	  0.066140	  0.105146	  0.207220	  0.987676	  0.251782	  0.350698	  0.268285	  0.143633	  0.277906	  0.327351	  0.354859	  0.019587	  0.075335	  0.242870	  0.338868	  0.117493	
1.909	  0.064815	  0.104240	  0.208561	  0.994471	  0.254808	  0.349642	  0.269608	  0.144945	  0.278234	  0.327619	  0.357396	  0.019287	  0.074979	  0.241341	  0.336965	  0.115873	
1.9095	  0.063519	  0.103364	  0.209963	  1.001159	  0.257862	  0.348576	  0.270894	  0.146246	  0.278518	  0.327873	  0.359908	  0.018993	  0.074626	  0.239800	  0.335070	  0.114271	
1.91	  0.062253	  0.102516	  0.211427	  1.007731	  0.260943	  0.347501	  0.272141	  0.147535	  0.278758	  0.328114	  0.362394	  0.018706	  0.074277	  0.238247	  0.333184	  0.112688	
1.9105	  0.061015	  0.101698	  0.212952	  1.014181	  0.264051	  0.346417	  0.273348	  0.148811	  0.278952	  0.328344	  0.364854	  0.018424	  0.073933	  0.236684	  0.331308	  0.111123	
1.911	  0.059806	  0.100909	  0.214539	  1.020503	  0.267183	  0.345326	  0.274515	  0.150072	  0.279101	  0.328564	  0.367286	  0.018149	  0.073592	  0.235109	  0.329442	  0.109578	
1.9115	  0.058627	  0.100149	  0.216188	  1.026689	  0.270340	  0.344226	  0.275641	  0.151318	  0.279204	  0.328776	  0.369688	  0.017879	  0.073255	  0.233524	  0.327588	  0.108052	
1.912	  0.057475	  0.099417	  0.217899	  1.032734	  0.273519	  0.343120	  0.276724	  0.152549	  0.279260	  0.328980	  0.372061	  0.017614	  0.072922	  0.231930	  0.325747	  0.106545	
1.9125	  0.056352	  0.098715	  0.219671	  1.038631	  0.276720	  0.342007	  0.277764	  0.153761	  0.279270	  0.329178	  0.374403	  0.017355	  0.072593	  0.230326	  0.323918	  0.105058	
1.913	  0.055258	  0.098041	  0.221505	  1.044374	  0.279940	  0.340888	  0.278761	  0.154955	  0.279232	  0.329372	  0.376712	  0.017101	  0.072269	  0.228714	  0.322104	  0.103591	
1.9135	  0.054191	  0.097395	  0.223401	  1.049959	  0.283180	  0.339765	  0.279712	  0.156130	  0.279148	  0.329562	  0.378987	  0.016852	  0.071948	  0.227093	  0.320304	  0.102144	
1.914	  0.053152	  0.096777	  0.225357	  1.055379	  0.286437	  0.338638	  0.280619	  0.157283	  0.279016	  0.329750	  0.381227	  0.016608	  0.071632	  0.225465	  0.318519	  0.100717	
1.9145	  0.052141	  0.096187	  0.227375	  1.060629	  0.289709	  0.337509	  0.281479	  0.158414	  0.278836	  0.329936	  0.383431	  0.016368	  0.071320	  0.223830	  0.316750	  0.099311	
1.915	  0.051157	  0.095625	  0.229453	  1.065704	  0.292996	  0.336378	  0.282291	  0.159522	  0.278608	  0.330122	  0.385597	  0.016133	  0.071012	  0.222189	  0.314998	  0.097925	
1.9155	  0.050201	  0.095090	  0.231592	  1.070597	  0.296296	  0.335247	  0.283056	  0.160606	  0.278333	  0.330307	  0.387723	  0.015903	  0.070708	  0.220542	  0.313262	  0.096559	
1.916	  0.049271	  0.094583	  0.233790	  1.075303	  0.299606	  0.334118	  0.283771	  0.161664	  0.278009	  0.330495	  0.389809	  0.015677	  0.070408	  0.218890	  0.311542	  0.095214	
1.9165	  0.048369	  0.094102	  0.236047	  1.079817	  0.302927	  0.332991	  0.284437	  0.162695	  0.277638	  0.330684	  0.391852	  0.015455	  0.070112	  0.217234	  0.309840	  0.093889	
1.917	  0.047493	  0.093649	  0.238362	  1.084132	  0.306254	  0.331867	  0.285051	  0.163699	  0.277219	  0.330875	  0.393851	  0.015238	  0.069820	  0.215574	  0.308155	  0.092586	
1.9175	  0.046643	  0.093221	  0.240735	  1.088244	  0.309587	  0.330748	  0.285614	  0.164673	  0.276752	  0.331070	  0.395805	  0.015025	  0.069531	  0.213911	  0.306488	  0.091303	
1.918	  0.045820	  0.092820	  0.243165	  1.092148	  0.312924	  0.329634	  0.286124	  0.165618	  0.276239	  0.331269	  0.397713	  0.014815	  0.069246	  0.212245	  0.304838	  0.090041	
1.9185	  0.045022	  0.092445	  0.245651	  1.095842	  0.316263	  0.328527	  0.286580	  0.166532	  0.275678	  0.331472	  0.399571	  0.014610	  0.068964	  0.210577	  0.303206	  0.088800	
1.919	  0.044251	  0.092095	  0.248193	  1.099322	  0.319602	  0.327428	  0.286983	  0.167413	  0.275072	  0.331680	  0.401380	  0.014408	  0.068686	  0.208907	  0.301592	  0.087579	
1.9195	  0.043505	  0.091770	  0.250789	  1.102587	  0.322938	  0.326337	  0.287332	  0.168262	  0.274420	  0.331893	  0.403137	  0.014210	  0.068410	  0.207237	  0.299995	  0.086380	
1.92	  0.042784	  0.091470	  0.253438	  1.105635	  0.326269	  0.325255	  0.287624	  0.169077	  0.273723	  0.332111	  0.404841	  0.014016	  0.068137	  0.205565	  0.298416	  0.085201	
1.9205	  0.042088	  0.091195	  0.256140	  1.108467	  0.329594	  0.324184	  0.287861	  0.169856	  0.272983	  0.332335	  0.406491	  0.013825	  0.067868	  0.203894	  0.296854	  0.084043	
1.921	  0.041418	  0.090943	  0.258892	  1.111081	  0.332910	  0.323123	  0.288042	  0.170600	  0.272199	  0.332565	  0.408087	  0.013638	  0.067600	  0.202222	  0.295308	  0.082906	
1.9215	  0.040771	  0.090715	  0.261695	  1.113476	  0.336214	  0.322075	  0.288166	  0.171308	  0.271374	  0.332800	  0.409627	  0.013455	  0.067335	  0.200552	  0.293778	  0.081789	
1.922	  0.040150	  0.090510	  0.264547	  1.115652	  0.339505	  0.321039	  0.288234	  0.171978	  0.270508	  0.333041	  0.411112	  0.013276	  0.067072	  0.198882	  0.292265	  0.080693	
1.9225	  0.039552	  0.090327	  0.267446	  1.117609	  0.342780	  0.320017	  0.288245	  0.172611	  0.269601	  0.333287	  0.412541	  0.013099	  0.066811	  0.197213	  0.290766	  0.079617	
1.923	  0.038978	  0.090167	  0.270392	  1.119348	  0.346037	  0.319008	  0.288200	  0.173207	  0.268656	  0.333539	  0.413915	  0.012927	  0.066551	  0.195546	  0.289282	  0.078562	
1.9235	  0.038427	  0.090028	  0.273382	  1.120870	  0.349274	  0.318014	  0.288098	  0.173764	  0.267672	  0.333796	  0.415232	  0.012758	  0.066293	  0.193881	  0.287812	  0.077528	
1.924	  0.037900	  0.089910	  0.276416	  1.122177	  0.352487	  0.317034	  0.287941	  0.174284	  0.266652	  0.334058	  0.416494	  0.012592	  0.066036	  0.192217	  0.286355	  0.076514	
1.9245	  0.037395	  0.089812	  0.279492	  1.123272	  0.355675	  0.316069	  0.287729	  0.174766	  0.265596	  0.334324	  0.417699	  0.012430	  0.065780	  0.190557	  0.284910	  0.075520	
1.925	  0.036913	  0.089734	  0.282609	  1.124157	  0.358835	  0.315120	  0.287461	  0.175211	  0.264506	  0.334595	  0.418848	  0.012271	  0.065525	  0.188899	  0.283477	  0.074547	
1.9255	  0.036454	  0.089676	  0.285764	  1.124835	  0.361967	  0.314185	  0.287139	  0.175619	  0.263383	  0.334870	  0.419942	  0.012116	  0.065271	  0.187245	  0.282055	  0.073594	
1.926	  0.036017	  0.089635	  0.288958	  1.125308	  0.365067	  0.313266	  0.286762	  0.175991	  0.262228	  0.335149	  0.420980	  0.011964	  0.065017	  0.185594	  0.280642	  0.072661	
1.9265	  0.035601	  0.089613	  0.292186	  1.125580	  0.368134	  0.312362	  0.286332	  0.176329	  0.261043	  0.335432	  0.421963	  0.011816	  0.064764	  0.183946	  0.279239	  0.071748	
1.927	  0.035207	  0.089608	  0.295449	  1.125654	  0.371167	  0.311474	  0.285848	  0.176631	  0.259828	  0.335717	  0.422892	  0.011671	  0.064511	  0.182303	  0.277845	  0.070856	
1.9275	  0.034833	  0.089619	  0.298744	  1.125531	  0.374163	  0.310600	  0.285313	  0.176900	  0.258585	  0.336006	  0.423767	  0.011529	  0.064257	  0.180665	  0.276458	  0.069983	
1.928	  0.034481	  0.089647	  0.302069	  1.125213	  0.377120	  0.309742	  0.284727	  0.177135	  0.257315	  0.336296	  0.424589	  0.011391	  0.064004	  0.179031	  0.275079	  0.069131	
1.9285	  0.034149	  0.089690	  0.305423	  1.124703	  0.380038	  0.308898	  0.284092	  0.177338	  0.256020	  0.336589	  0.425360	  0.011256	  0.063751	  0.177401	  0.273706	  0.068298	
1.929	  0.033837	  0.089747	  0.308804	  1.124002	  0.382915	  0.308070	  0.283407	  0.177508	  0.254701	  0.336882	  0.426078	  0.011125	  0.063497	  0.175777	  0.272338	  0.067485	
1.9295	  0.033545	  0.089819	  0.312210	  1.123112	  0.385749	  0.307255	  0.282675	  0.177647	  0.253358	  0.337176	  0.426746	  0.010997	  0.063244	  0.174157	  0.270975	  0.066692	
1.93	  0.033272	  0.089904	  0.315640	  1.122033	  0.388540	  0.306456	  0.281895	  0.177755	  0.251994	  0.337470	  0.427364	  0.010873	  0.062990	  0.172543	  0.269616	  0.065919	
1.9305	  0.033019	  0.090002	  0.319094	  1.120768	  0.391288	  0.305670	  0.281070	  0.177832	  0.250609	  0.337762	  0.427932	  0.010752	  0.062735	  0.170935	  0.268260	  0.065165	
1.931	  0.032784	  0.090112	  0.322568	  1.119317	  0.393993	  0.304899	  0.280200	  0.177879	  0.249206	  0.338053	  0.428452	  0.010635	  0.062480	  0.169332	  0.266906	  0.064430	
1.9315	  0.032568	  0.090233	  0.326063	  1.117683	  0.396655	  0.304141	  0.279285	  0.177897	  0.247786	  0.338342	  0.428923	  0.010521	  0.062224	  0.167736	  0.265553	  0.063714	
1.932	  0.032370	  0.090365	  0.329577	  1.115866	  0.399276	  0.303396	  0.278327	  0.177886	  0.246349	  0.338627	  0.429348	  0.010410	  0.061968	  0.166147	  0.264199	  0.063017	
1.9325	  0.032189	  0.090508	  0.333109	  1.113868	  0.401855	  0.302663	  0.277327	  0.177846	  0.244898	  0.338908	  0.429726	  0.010303	  0.061711	  0.164565	  0.262844	  0.062339	
1.933	  0.032026	  0.090660	  0.336658	  1.111691	  0.404395	  0.301943	  0.276284	  0.177777	  0.243435	  0.339184	  0.430059	  0.010200	  0.061453	  0.162991	  0.261486	  0.061680	
1.9335	  0.031881	  0.090821	  0.340222	  1.109336	  0.406895	  0.301233	  0.275201	  0.177681	  0.241960	  0.339454	  0.430348	  0.010100	  0.061194	  0.161426	  0.260124	  0.061039	
1.934	  0.031752	  0.090990	  0.343800	  1.106805	  0.409357	  0.300535	  0.274077	  0.177556	  0.240475	  0.339718	  0.430594	  0.010003	  0.060934	  0.159869	  0.258757	  0.060417	
